<svg xmlns="http://www.w3.org/2000/svg" viewBox="0 0 1200 630">
  <defs>
    <linearGradient id="bgGrad" x1="0%" y1="0%" x2="100%" y2="100%">
      <stop offset="0%" style="stop-color:#111827;stop-opacity:1" />
      <stop offset="100%" style="stop-color:#1f2937;stop-opacity:1" />
    </linearGradient>
    <linearGradient id="accentGrad" x1="0%" y1="0%" x2="100%" y2="100%">
      <stop offset="0%" style="stop-color:#6366f1;stop-opacity:1" />
      <stop offset="100%" style="stop-color:#8b5cf6;stop-opacity:1" />
    </linearGradient>
  </defs>
  
  <!-- Background -->
  <rect width="1200" height="630" fill="url(#bgGrad)"/>
  
  <!-- Decorative circles -->
  <circle cx="1100" cy="100" r="200" fill="#6366f1" opacity="0.1"/>
  <circle cx="100" cy="530" r="150" fill="#8b5cf6" opacity="0.1"/>
  
  <!-- Logo box -->
  <rect x="80" y="200" width="120" height="120" rx="24" fill="url(#accentGrad)"/>
  <text x="140" y="280" font-family="Arial, sans-serif" font-size="60" font-weight="bold" fill="white" text-anchor="middle">CE</text>
  
  <!-- Main text -->
  <text x="230" y="250" font-family="Arial, sans-serif" font-size="52" font-weight="bold" fill="white">Casiano Ezequiel</text>
  <text x="230" y="310" font-family="Arial, sans-serif" font-size="28" fill="#9ca3af">Desarrollador de Software</text>
  
  <!-- Tech tags -->
  <rect x="80" y="380" width="120" height="40" rx="8" fill="#374151"/>
  <text x="140" y="407" font-family="Arial, sans-serif" font-size="18" fill="#10b981" text-anchor="middle">Node.js</text>
  
  <rect x="220" y="380" width="100" height="40" rx="8" fill="#374151"/>
  <text x="270" y="407" font-family="Arial, sans-serif" font-size="18" fill="#3b82f6" text-anchor="middle">Python</text>
  
  <rect x="340" y="380" width="100" height="40" rx="8" fill="#374151"/>
  <text x="390" y="407" font-family="Arial, sans-serif" font-size="18" fill="#f59e0b" text-anchor="middle">DevOps</text>
  
  <rect x="460" y="380" width="80" height="40" rx="8" fill="#374151"/>
  <text x="500" y="407" font-family="Arial, sans-serif" font-size="18" fill="#ef4444" text-anchor="middle">React</text>
  
  <!-- Subtitle -->
  <text x="80" y="500" font-family="Arial, sans-serif" font-size="22" fill="#6b7280">Especialista en desarrollo backend, automatización y sistemas escalables</text>
  
  <!-- Accent line -->
  <rect x="80" y="550" width="200" height="4" rx="2" fill="url(#accentGrad)"/>
</svg>
